<?xml version="1.0" encoding="UTF-8"?>
<svg xmlns="http://www.w3.org/2000/svg" width="1200" height="360" viewBox="0 0 1200 360" role="img" aria-labelledby="title desc">
  <title id="title">ProbRAW</title>
  <desc id="desc">Vector logo for ProbRAW, a scientific RAW profiling workflow led by Probatia Forensics SL with AEICF collaboration.</desc>
  <defs>
    <linearGradient id="plateGradient" x1="86" y1="58" x2="418" y2="454" gradientUnits="userSpaceOnUse">
      <stop offset="0" stop-color="#163451"/>
      <stop offset="0.58" stop-color="#0d1e32"/>
      <stop offset="1" stop-color="#07101b"/>
    </linearGradient>
    <linearGradient id="foldGradient" x1="310" y1="64" x2="420" y2="166" gradientUnits="userSpaceOnUse">
      <stop offset="0" stop-color="#19c7d4"/>
      <stop offset="1" stop-color="#078fa0"/>
    </linearGradient>
    <linearGradient id="rawAccent" x1="142" y1="414" x2="370" y2="414" gradientUnits="userSpaceOnUse">
      <stop offset="0" stop-color="#d84a3a"/>
      <stop offset="0.24" stop-color="#f29f25"/>
      <stop offset="0.45" stop-color="#f2db4b"/>
      <stop offset="0.64" stop-color="#39b96b"/>
      <stop offset="0.82" stop-color="#19a8d8"/>
      <stop offset="1" stop-color="#7a5cff"/>
    </linearGradient>
    <linearGradient id="wordRaw" x1="722" y1="112" x2="1042" y2="226" gradientUnits="userSpaceOnUse">
      <stop offset="0" stop-color="#0aa6b7"/>
      <stop offset="0.58" stop-color="#14b96f"/>
      <stop offset="1" stop-color="#f29f25"/>
    </linearGradient>
    <style>
      .word-prob { fill: #172033; }
      .word-raw { fill: url(#wordRaw); }
      .tagline { fill: #5d6979; }
    </style>
  </defs>

  <g transform="translate(34 36) scale(0.56)">
    <path d="M96 54h226l94 94v310H96Z" fill="url(#plateGradient)"/>
    <path d="M322 54v94h94Z" fill="url(#foldGradient)"/>
    <path d="M96 54h226l94 94v310H96Z" fill="none" stroke="#ffffff" stroke-opacity="0.16" stroke-width="10" stroke-linejoin="round"/>

    <path fill="#f8fbff" fill-rule="evenodd" d="M146 126h128c72 0 118 45 118 109 0 68-50 110-122 110h-58v38h-66Zm66 62v96h58c38 0 60-18 60-48 0-29-22-48-60-48Z"/>

    <circle cx="270" cy="236" r="26" fill="none" stroke="#18c7d1" stroke-width="8"/>
    <path d="M270 204v64M238 236h64" fill="none" stroke="#18c7d1" stroke-width="6" stroke-linecap="round"/>

    <rect x="140" y="400" width="232" height="32" rx="5" fill="url(#rawAccent)"/>
    <g fill="none" stroke="#ffffff" stroke-opacity="0.52" stroke-width="3">
      <path d="M178 400v32"/>
      <path d="M217 400v32"/>
      <path d="M256 400v32"/>
      <path d="M295 400v32"/>
      <path d="M334 400v32"/>
    </g>
  </g>

  <text x="365" y="206" class="word-prob" font-family="Segoe UI, Arial, Helvetica, sans-serif" font-size="136" font-weight="600" letter-spacing="0">Prob</text>
  <text x="684" y="206" class="word-raw" font-family="Segoe UI, Arial, Helvetica, sans-serif" font-size="136" font-weight="800" letter-spacing="0">RAW</text>
  <text x="370" y="260" class="tagline" font-family="Segoe UI, Arial, Helvetica, sans-serif" font-size="31" font-weight="500" letter-spacing="0">Probatia Forensics SL + AEICF</text>
</svg>
